<?xml version="1.0" encoding="UTF-8"?>
<svg id="Layer_2" data-name="Layer 2" xmlns="http://www.w3.org/2000/svg" viewBox="0 0 110.71 161.87">
  <defs>
    <style>
      .cls-1 {
        fill: #fff;
      }
    </style>
  </defs>
  <g id="Layer_1-2" data-name="Layer 1">
    <path class="cls-1" d="M46.5,0h17.71c2.46,0,4.46,1.99,4.46,4.46v61.29c0,1.98-1.31,3.73-3.21,4.28l-17.71,5.16c-2.86.83-5.7-1.31-5.7-4.28V4.46C42.04,1.99,44.03,0,46.5,0ZM26.62,27.31v50.69c0,1.98-1.31,3.73-3.21,4.28l-17.71,5.16C2.85,88.27,0,86.13,0,83.16V27.31C0,24.85,1.99,22.85,4.46,22.85h17.71c2.46,0,4.46,1.99,4.46,4.46ZM3.21,104.29l17.71-5.16c2.86-.83,5.7,1.31,5.7,4.28v31.16c0,2.46-1.99,4.46-4.46,4.46H4.46c-2.46,0-4.46-1.99-4.46-4.46v-26c0-1.98,1.31-3.73,3.21-4.28ZM45.25,92.04l17.71-5.16c2.86-.83,5.7,1.31,5.7,4.28v66.26c0,2.46-1.99,4.46-4.46,4.46h-17.71c-2.46,0-4.46-1.99-4.46-4.46v-61.1c0-1.99,1.31-3.73,3.21-4.28ZM84.08,134.56v-50.5c0-1.98,1.31-3.73,3.21-4.28l17.71-5.16c2.86-.83,5.7,1.31,5.7,4.28v55.66c0,2.46-1.99,4.46-4.46,4.46h-17.71c-2.46,0-4.46-1.99-4.46-4.46ZM110.7,27.31v26.19c0,1.99-1.31,3.73-3.21,4.28l-17.71,5.16c-2.86.83-5.7-1.31-5.7-4.28v-31.35c0-2.46,1.99-4.46,4.46-4.46h17.71c2.46,0,4.46,1.99,4.46,4.46h0Z"/>
  </g>
</svg>