<?xml version="1.0" encoding="UTF-8"?>
<svg id="Layer_2" data-name="Layer 2" xmlns="http://www.w3.org/2000/svg" viewBox="0 0 231.24 38.77">
  <defs>
    <style>
      .cls-1 {
        fill: none;
      }

      .cls-2 {
        fill-rule: evenodd;
      }

      .cls-2, .cls-3 {
        fill: #7229ff;
      }
    </style>
  </defs>
  <g id="Layer_1-2" data-name="Layer 1">
    <g>
      <path class="cls-3" d="M25.45,5.48h-4.24c-.59,0-1.07.47-1.07,1.06v7.51c0,.71.68,1.23,1.37,1.03l4.24-1.24c.45-.13.77-.55.77-1.02v-6.28c0-.59-.48-1.06-1.07-1.06ZM25.15,17.88l-4.24,1.23c-.46.13-.77.55-.77,1.03v12.09c0,.59.48,1.07,1.07,1.07h4.24c.59,0,1.07-.48,1.07-1.07v-13.33c0-.71-.68-1.22-1.37-1.02ZM15.08,20.81l-4.24,1.23c-.45.14-.77.55-.77,1.03v14.63c0,.59.48,1.07,1.07,1.07h4.24c.59,0,1.07-.48,1.07-1.07v-15.87c0-.71-.68-1.22-1.37-1.02ZM5.01,23.74l-4.24,1.24c-.45.13-.77.55-.77,1.02v6.23c0,.59.48,1.07,1.07,1.07h4.24c.59,0,1.07-.48,1.07-1.07v-7.46c0-.71-.68-1.23-1.37-1.03ZM5.31,5.48H1.07c-.59,0-1.07.47-1.07,1.06v13.38c0,.71.69,1.22,1.37,1.02l4.24-1.23c.46-.13.77-.55.77-1.03V6.54c0-.59-.48-1.06-1.07-1.06ZM15.38,0h-4.24c-.59,0-1.07.48-1.07,1.07v15.92c0,.71.68,1.22,1.37,1.02l4.24-1.24c.46-.13.77-.55.77-1.02V1.07c0-.59-.48-1.07-1.07-1.07Z"/>
      <path class="cls-3" d="M134.62,16.3c-.97-1.22-2.47-1.83-4.5-1.83-1.25,0-2.26.16-3.01.49-.75.31-1.37.83-1.86,1.57v-8.2h-2.26v21.76h1.8l.27-2.02c.24.37.54.75.92,1.12.39.36.91.66,1.56.9.67.24,1.54.35,2.61.35,2.02,0,3.52-.61,4.49-1.81.97-1.21,1.45-3.23,1.45-6.05,0-2.98-.49-5.07-1.47-6.28ZM133.41,26.17c-.25.86-.68,1.48-1.29,1.84-.6.36-1.43.54-2.49.54s-1.98-.19-2.61-.56c-.64-.37-1.09-1-1.37-1.88-.27-.89-.4-2.1-.4-3.65,0-1.63.12-2.88.36-3.76s.68-1.49,1.3-1.82c.63-.35,1.52-.52,2.68-.52,1.07,0,1.91.19,2.51.58.61.38,1.05,1.02,1.3,1.93.26.91.4,2.16.4,3.75,0,1.5-.13,2.68-.39,3.55Z"/>
      <path class="cls-3" d="M116.3,28.03c-.58.38-1.53.57-2.86.57-1.62,0-2.78-.42-3.48-1.28-.68-.86-1.03-2.29-1.03-4.28h10.78c0-1.86-.2-3.39-.59-4.6-.39-1.2-1.06-2.09-2-2.67-.95-.59-2.26-.89-3.94-.89-2.44,0-4.15.65-5.13,1.95-.97,1.29-1.45,3.24-1.45,5.84,0,1.86.23,3.37.68,4.5.45,1.14,1.18,1.97,2.18,2.49.99.52,2.3.78,3.93.78,2.11,0,3.67-.35,4.67-1.07,1.02-.73,1.53-1.84,1.53-3.36h-2.35c-.04.96-.35,1.63-.94,2.02ZM109.43,18.56c.28-.68.71-1.16,1.32-1.44.6-.29,1.41-.43,2.43-.43s1.82.14,2.42.43c.6.28,1.03.76,1.3,1.44.28.68.44,1.61.48,2.8h-8.42c.04-1.19.2-2.12.47-2.8Z"/>
      <path class="cls-3" d="M100.74,28.03c-.58.38-1.53.57-2.85.57-1.63,0-2.79-.42-3.49-1.28-.68-.86-1.03-2.29-1.03-4.28h10.77c0-1.86-.19-3.39-.58-4.6-.39-1.2-1.06-2.09-2-2.67-.95-.59-2.26-.89-3.95-.89-2.43,0-4.14.65-5.12,1.95-.96,1.29-1.45,3.24-1.45,5.84,0,1.86.23,3.37.67,4.5.46,1.14,1.19,1.97,2.19,2.49.99.52,2.3.78,3.93.78,2.11,0,3.67-.35,4.67-1.07,1.02-.73,1.53-1.84,1.53-3.36h-2.35c-.04.96-.35,1.63-.94,2.02ZM93.87,18.56c.28-.68.72-1.16,1.31-1.44.61-.29,1.42-.43,2.44-.43s1.82.14,2.42.43c.6.28,1.03.76,1.3,1.44.28.68.44,1.61.48,2.8h-8.41c.04-1.19.19-2.12.46-2.8Z"/>
      <path class="cls-3" d="M77.94,26.1h2.2c.02.98.29,1.66.81,2.03.52.36,1.5.54,2.92.54,1.29,0,2.17-.2,2.65-.59.49-.39.74-1.04.74-1.94,0-.7-.23-1.25-.69-1.65-.45-.4-1.17-.68-2.17-.84l-1.6-.25c-1.7-.27-2.92-.73-3.68-1.38-.74-.67-1.11-1.62-1.11-2.86,0-2.86,1.93-4.29,5.79-4.29,2.03,0,3.46.34,4.3,1.01.83.68,1.25,1.8,1.25,3.36h-2.2c0-.93-.25-1.6-.75-2-.5-.4-1.37-.6-2.59-.6s-2.15.2-2.71.59c-.55.39-.83,1.02-.83,1.9,0,.68.21,1.2.62,1.56.42.36,1.09.62,2,.77l1.6.25c1.77.28,3.03.75,3.78,1.43.76.68,1.14,1.67,1.14,2.98,0,1.47-.45,2.56-1.36,3.27-.9.71-2.32,1.06-4.27,1.06-2.06,0-3.55-.33-4.47-1-.92-.67-1.37-1.78-1.37-3.34h0Z"/>
      <path class="cls-2" d="M75.97,28.52c-.21,0-.38-.02-.53-.06h0c-.14-.05-.25-.11-.33-.19-.1-.1-.17-.26-.23-.47-.04-.22-.07-.49-.07-.82v-7.61c0-1.35-.38-2.38-1.14-3.11-.1-.11-.22-.21-.35-.3-.81-.6-1.97-.96-3.49-1.07-.27-.02-.63-.01-1.04.03-.25.02-.53.06-.81.1-.2.03-.4.06-.61.1-.25.04-.49.09-.73.14-.03.01-.07.01-.1.02-.14.03-.28.06-.41.1h-.01l-.17,2.03h0s.09-.02.13-.03l.34-.1c2.08-.56,4.04-.74,5.22.02.07.05.13.1.19.17.25.23.43.54.54.92.08.29.12.61.12.97v1.98h-3.15c-1.22,0-2.27.08-3.15.25-.96.18-1.72.45-2.29.82-.13.08-.25.18-.37.28-.35.31-.62.68-.83,1.12-.13.29-.23.62-.3.97-.07.35-.1.74-.1,1.15,0,.18.01.35.02.52.03.34.09.66.17.96.04.15.09.29.15.43.23.56.58,1.03,1.03,1.42.45.39,1,.68,1.65.88.66.19,1.4.29,2.25.29,1.19,0,2.23-.18,3.13-.55.68-.27,1.25-.62,1.71-1.06.14-.15.28-.3.41-.46h.01c0,.61.22,1.11.65,1.51.23.2.49.34.79.43.29.09.62.14.98.14.21,0,.4,0,.54-.01.15,0,.33-.05.52-.12v-1.8c-.12.01-.23.01-.33.01ZM72.21,26.88c-.09.18-.21.35-.36.5t0,.01c-.14.15-.31.29-.5.42s-.4.24-.62.34c-.69.29-1.56.43-2.61.43s-1.96-.23-2.56-.69c-.6-.46-.9-1.13-.9-2.01,0-.77.2-1.38.6-1.81.13-.15.29-.28.47-.39.09-.05.19-.11.29-.15.21-.1.45-.18.72-.25.67-.17,1.53-.26,2.57-.26h3.18v2.57c0,.48-.1.91-.28,1.28,0,0,.01,0,0,.01Z"/>
      <path class="cls-3" d="M32.89,27l.05-2.06,33.18-9.57.76,1.77-33.99,9.85Z"/>
      <path class="cls-1" d="M72.49,25.59c0,.48-.1.91-.28,1.28.2-.37.29-.8.29-1.28h0ZM70.73,28.15c.22-.09.43-.2.62-.33s.36-.27.5-.43c-.14.15-.31.29-.5.42s-.4.24-.62.34ZM75.97,28.52c-.21,0-.38-.02-.53-.06h0c-.14-.04-.26-.1-.34-.18-.1-.11-.18-.27-.22-.48-.06-.22-.08-.49-.08-.82v-7.61h.01c0-1.35-.38-2.38-1.14-3.11-.11-.11-.23-.21-.35-.3-.81-.6-1.97-.96-3.49-1.07-.27-.02-.63-.01-1.04.03-.25.02-.53.06-.81.1-.2.03-.4.06-.61.1-.25.04-.49.09-.73.14-.03.01-.07.01-.1.02-.14.03-.28.06-.41.09h0s.76,1.77.76,1.77l-.47.14-.34.1c2.2-.63,4.31-.87,5.55-.07.07.05.14.1.2.16.25.24.43.55.54.92.08.29.12.61.12.97v1.99h-3.16c-1.22,0-2.26.08-3.14.24-.96.18-1.72.45-2.29.82-.13.08-.25.18-.37.28-.35.3-.63.68-.83,1.12-.13.29-.23.62-.3.97-.07.35-.1.74-.1,1.15,0,.18.01.35.02.52.03.34.09.66.17.96.04.15.09.29.15.43.22.56.56,1.03,1.02,1.43.46.38,1.01.68,1.66.87.66.19,1.4.29,2.25.29,1.19,0,2.23-.18,3.13-.55.68-.27,1.25-.62,1.71-1.06.14-.15.28-.3.41-.46,0,.63.22,1.13.66,1.51.23.2.49.34.79.43.29.1.62.14.98.14.21,0,.4,0,.54-.01.15,0,.33-.05.52-.12v-1.8c-.12.01-.23.01-.33.01ZM72.21,26.88c-.09.18-.21.35-.36.5t0,.01c-.14.15-.31.29-.5.42s-.4.24-.62.34c-.69.29-1.56.43-2.61.43s-1.96-.23-2.56-.69c-.6-.46-.9-1.13-.9-2.01,0-.77.2-1.38.6-1.81.14-.15.29-.27.47-.38.09-.06.19-.11.29-.16.21-.1.45-.18.72-.25.67-.17,1.53-.26,2.57-.26h3.18v2.57c0,.48-.1.91-.28,1.28,0,0,.01,0,0,.01ZM65.93,17.42h0s.09-.03.13-.04l-.13.03h0ZM66.1,15.38h.02s-.02,0-.02,0ZM55.64,18.39l-9.46,2.73-2.64.76-10.6,3.06-.05,2.06,10.65-3.09,2.64-.77,9.46-2.74,2.64-.77,7.65-2.21.17-2.04-7.82,2.25-2.64.76Z"/>
      <path class="cls-3" d="M43.54,8.33v22.12h2.64V8.33h-2.64Z"/>
      <path class="cls-3" d="M55.64,8.33v22.12h2.64V8.33h-2.64Z"/>
      <path class="cls-3" d="M43.54,8.33v22.12h2.64V8.33h-2.64Z"/>
      <path class="cls-3" d="M55.64,8.33v22.12h2.64V8.33h-2.64Z"/>
      <g>
        <path class="cls-3" d="M220.41,16.73h3.83v-1.82h-3.85v-4.14h-2.36v14.95c0,3.13,1.43,4.7,4.3,4.7.51,0,.95-.02,1.31-.07.36-.04.67-.08.94-.14v-1.99c-.26.04-.54.08-.85.12-.3.03-.61.04-.94.04-.84,0-1.44-.18-1.82-.54-.37-.37-.56-.98-.56-1.82v-9.31h0Z"/>
        <path class="cls-3" d="M212.3,15.08v15.36h2.46v-15.36h-2.46ZM212.3,10.78v2.33h2.46v-2.33h-2.46Z"/>
        <path class="cls-3" d="M205.62,28.03c-.58.38-1.53.57-2.86.57-1.62,0-2.78-.42-3.48-1.28-.69-.87-1.03-2.29-1.03-4.28h10.77c0-1.86-.19-3.39-.58-4.6-.39-1.21-1.06-2.1-2-2.68-.95-.59-2.26-.88-3.95-.88-2.44,0-4.15.65-5.12,1.94-.97,1.3-1.45,3.25-1.45,5.85,0,1.86.22,3.36.67,4.5.46,1.14,1.19,1.97,2.18,2.49,1,.52,2.31.78,3.93.78h.01c2.11,0,3.67-.36,4.67-1.07,1.02-.73,1.53-1.85,1.53-3.36h-2.35c-.04.95-.35,1.63-.94,2.02ZM198.75,18.56c.28-.68.71-1.16,1.31-1.44.61-.29,1.42-.43,2.43-.43s1.83.14,2.43.43c.59.28,1.03.76,1.3,1.44.27.67.43,1.61.47,2.79h-8.41c.04-1.18.2-2.12.47-2.79Z"/>
        <path class="cls-3" d="M190.37,8.32v8.2c-.49-.73-1.11-1.26-1.86-1.57-.75-.32-1.75-.48-3.01-.48-2.03,0-3.53.61-4.51,1.83-.97,1.21-1.46,3.3-1.46,6.28,0,2.82.49,4.84,1.46,6.04.98,1.21,2.47,1.82,4.48,1.82h.01c1.08,0,1.93-.12,2.58-.35.67-.24,1.2-.54,1.58-.91.38-.37.69-.74.92-1.11l.27,2.02h1.81V8.32h-2.27ZM189.96,26.1c-.26.89-.72,1.52-1.35,1.89-.64.37-1.51.56-2.62.56-1.05,0-1.88-.19-2.49-.55-.6-.36-1.03-.97-1.29-1.84-.26-.87-.38-2.05-.38-3.55,0-1.59.12-2.84.38-3.75.27-.9.7-1.55,1.31-1.93.62-.38,1.46-.57,2.51-.57,1.16,0,2.05.17,2.68.51.63.33,1.06.94,1.29,1.83.25.87.37,2.13.37,3.76,0,1.54-.13,2.75-.41,3.64Z"/>
        <path class="cls-3" d="M176.7,28.27c-.19-.2-.29-.64-.29-1.29v-7.6c0-1.53-.5-2.67-1.48-3.4-.98-.74-2.52-1.11-4.53-1.11s-3.5.36-4.47,1.06c-.96.71-1.45,1.81-1.45,3.29h2.08c0-.9.29-1.54.88-1.93.59-.39,1.63-.59,2.96-.59s2.29.21,2.85.62c.57.4.85,1.09.85,2.05v1.98h-3.13c-2.52,0-4.32.36-5.4,1.06-1.06.7-1.59,1.88-1.59,3.52,0,1.44.45,2.54,1.36,3.33.9.78,2.19,1.16,3.88,1.16,1.17,0,2.21-.17,3.11-.54.9-.36,1.61-.87,2.1-1.53,0,.63.22,1.13.66,1.51.45.39,1.04.58,1.76.58.21,0,.39-.01.54-.02.15-.01.32-.05.51-.11v-1.8c-.6.05-1-.03-1.2-.24ZM174.12,25.59h-.01c0,.98-.37,1.72-1.13,2.23-.75.51-1.82.76-3.21.76-1.1,0-1.94-.23-2.54-.69-.6-.46-.9-1.13-.9-2,0-1.03.36-1.76,1.07-2.19.71-.45,1.9-.67,3.55-.67h3.17v2.56Z"/>
        <path class="cls-3" d="M138.58,30.44V8.32h4.51l6.25,16.81h.53l6.28-16.81h4.53v22.12h-2.38V10.7h-.55l-6.39,17.07h-3.52l-6.34-17.07h-.55v19.74h-2.38Z"/>
        <path class="cls-3" d="M229.66,13.67c-.04-.16-.08-.27-.13-.35-.04-.07-.12-.12-.24-.15.16-.03.27-.09.35-.2.08-.11.12-.24.12-.4,0-.28-.08-.48-.23-.61-.16-.12-.43-.18-.81-.18h-1.01v2.77h.51v-1.16h.44c.18,0,.31.03.37.08.07.06.12.17.16.34l.15.74h.52l-.2-.88ZM229.13,12.88c-.08.06-.22.09-.4.09h-.51v-.76h.53c.2,0,.34.03.41.08.06.05.1.15.1.3,0,.14-.05.24-.13.29ZM229.66,13.67c-.04-.16-.08-.27-.13-.35-.04-.07-.12-.12-.24-.15.16-.03.27-.09.35-.2.08-.11.12-.24.12-.4,0-.28-.08-.48-.23-.61-.16-.12-.43-.18-.81-.18h-1.01v2.77h.51v-1.16h.44c.18,0,.31.03.37.08.07.06.12.17.16.34l.15.74h.52l-.2-.88ZM229.13,12.88c-.08.06-.22.09-.4.09h-.51v-.76h.53c.2,0,.34.03.41.08.06.05.1.15.1.3,0,.14-.05.24-.13.29ZM230.92,11.86c-.21-.37-.51-.66-.89-.87-.38-.21-.83-.31-1.34-.31s-.95.1-1.33.31c-.38.21-.68.5-.89.88-.21.38-.31.82-.31,1.32s.1.93.31,1.31c.21.37.51.66.89.87.38.21.82.31,1.33.31s.96-.1,1.34-.31c.38-.21.68-.5.89-.88.22-.38.32-.82.32-1.32s-.1-.94-.32-1.31ZM230.58,14.31c-.18.32-.43.58-.75.75-.32.18-.69.27-1.13.27s-.8-.09-1.13-.27c-.32-.17-.57-.43-.75-.75-.18-.32-.27-.7-.27-1.13s.09-.81.27-1.13c.18-.32.43-.58.75-.76.33-.18.7-.27,1.13-.27s.83.09,1.15.27.57.44.74.76c.17.32.26.7.26,1.13s-.09.81-.27,1.13ZM229.53,13.32c-.04-.07-.12-.12-.24-.15.16-.03.27-.09.35-.2.08-.11.12-.24.12-.4,0-.28-.08-.48-.23-.61-.16-.12-.43-.18-.81-.18h-1.01v2.77h.51v-1.16h.44c.18,0,.31.03.37.08.07.06.12.17.16.34l.15.74h.52l-.2-.88c-.04-.16-.08-.27-.13-.35ZM229.13,12.88c-.08.06-.22.09-.4.09h-.51v-.76h.53c.2,0,.34.03.41.08.06.05.1.15.1.3,0,.14-.05.24-.13.29Z"/>
      </g>
    </g>
  </g>
</svg>